# xmcd
#
# Track frame offsets:
#	150
#	12713
#	25568
#	37343
#	48511
#	62116
#	76104
#	92574
#	109494
#	125492
#	139735
#	152755
#
# Disc length: 2180 seconds
#
# Revision: 1
# Processed by: cddbd v1.5.2PL0 Copyright (c) Steve Scherf et al.
# Submitted via: audiograbber 1.83.01
#
DISCID=a008820c
DTITLE=Johnny Cash - Mean As Hell
DYEAR=1965
DGENRE=Country
TTITLE0=The Shifting, Whispering Sands, Part 1
TTITLE1=I Ride An Old Paint
TTITLE2=The Road To Kaintuck
TTITLE3=A Letter From Home
TTITLE4=Mean As Hell
TTITLE5=25 Minutes To Go
TTITLE6=Mister Garfield
TTITLE7=The Blizzard
TTITLE8=The Streets Of Laredo
TTITLE9=Sweet Betsy From Pike
TTITLE10=Stampede
TTITLE11=Bury Me Not On The Lone Prairie
EXTD=
EXTT0=
EXTT1=
EXTT2=
EXTT3=
EXTT4=
EXTT5=
EXTT6=
EXTT7=
EXTT8=
EXTT9=
EXTT10=
EXTT11=
PLAYORDER=
